<svg width="1920" height="1080" viewBox="0 0 1920 1080" xmlns="http://www.w3.org/2000/svg">
  <defs>
    <linearGradient id="waveGradient" x1="0%" y1="0%" x2="0%" y2="100%">
      <stop offset="0%" style="stop-color:#0d4c3e;stop-opacity:1" />
      <stop offset="50%" style="stop-color:#0d4c3e;stop-opacity:1" />
      <stop offset="100%" style="stop-color:#0d4c3e;stop-opacity:1" />
    </linearGradient>
    <linearGradient id="foamGradient" x1="0%" y1="0%" x2="0%" y2="100%">
      <stop offset="0%" style="stop-color:#ffffff;stop-opacity:0.9" />
      <stop offset="100%" style="stop-color:#e0f2fe;stop-opacity:0.7" />
    </linearGradient>
  </defs>
  
  <!-- White top half -->
  <rect width="1920" height="540" fill="#ffffff"/>
  
  <!-- Simple wave from bottom -->
  <path d="M0 800 Q120 500 240 600 Q360 700 480 550 Q600 400 720 650 Q840 900 960 550 Q1080 200 1200 700 Q1320 1000 1440 500 Q1560 300 1680 650 Q1800 800 1920 550 L1920 1080 L0 1080 Z" fill="#0d4c3e"/>
  
  <!-- Secondary wave layer -->
  <path d="M0 850 Q160 700 320 750 Q480 800 640 700 Q800 600 960 750 Q1120 900 1280 700 Q1440 500 1600 750 Q1760 850 1920 750 L1920 1080 L0 1080 Z" fill="#0d4c3e" opacity="0.8"/>
</svg>